<svg width="35" height="57" viewBox="0 0 35 57" fill="none" xmlns="http://www.w3.org/2000/svg">
<path d="M27.9504 56.1C36.0443 48.7048 36.5684 36.1854 29.1732 28.1497C21.778 20.1139 9.25856 19.5316 1.1646 26.9268C0.756989 27.3344 0.349379 27.6838 0 28.0914L27.9504 56.1Z" fill="#00916E"/>
<path d="M0 28.0914C7.74458 35.7778 20.2058 35.7778 27.9504 28.0914C29.9884 26.0534 41.3432 13.4757 27.9504 0.0828552L0 28.0914Z" fill="#FED82F"/>
<path d="M27.9504 28.0914L28.5327 27.5091C21.1957 20.1722 8.79272 20.2886 0.989908 27.1597L0 28.0914L0.931679 28.9649C8.79272 35.836 20.6134 35.4284 27.9504 28.0914Z" fill="#14B35F"/>
<path d="M27.4845 10.4478C28.9402 10.4478 30.1631 9.28316 30.1631 7.76918C30.1631 6.25521 28.9985 5.09061 27.4845 5.09061C26.0287 5.09061 24.8059 6.25521 24.8059 7.76918C24.8059 9.22493 25.9705 10.4478 27.4845 10.4478Z" fill="#00916E"/>
</svg>
