<?xml version="1.0" encoding="utf-8"?>
<!-- Generator: Adobe Illustrator 24.0.1, SVG Export Plug-In . SVG Version: 6.00 Build 0)  -->
<svg version="1.1" id="Layer_1" xmlns="http://www.w3.org/2000/svg" xmlns:xlink="http://www.w3.org/1999/xlink" x="0px" y="0px"
	 viewBox="0 0 1000 1000" style="enable-background:new 0 0 1000 1000;" xml:space="preserve">
<style type="text/css">
	.st0{fill:#00916E;}
	.st1{fill:#FED82F;}
	.st2{fill:#14B35F;}
	.st3{fill:#FFFFFF;}
</style>
<title>Dark</title>
<g>
	<g>
		<path class="st0" d="M305.1,568.3c19.7-18,21-48.5,3-68.1s-48.5-21-68.3-3c-1,1-2,1.8-2.8,2.8L305.1,568.3z"/>
		<path class="st1" d="M237,500c18.9,18.7,49.2,18.7,68.1,0c5-5,32.6-35.6,0-68.3L237,500z"/>
		<path class="st2" d="M305.1,500l1.4-1.4c-17.9-17.9-48.1-17.6-67.1-0.9L237,500l2.3,2.1C258.4,518.9,287.2,517.9,305.1,500z"/>
		<path class="st0" d="M304,457c3.5,0,6.5-2.8,6.5-6.5s-2.8-6.5-6.5-6.5c-3.5,0-6.5,2.8-6.5,6.5l0,0C297.5,454,300.3,457,304,457
			L304,457z"/>
	</g>
	<g>
		<path class="st3" d="M351.7,470.4h16.2l0.1,10.6c3.2-7.4,9.7-11.7,17.9-11.7c9.1,0,15.7,4.4,18.7,11.9
			c3.9-7.5,10.6-11.9,19.3-11.9c12.8,0,20.5,9,20.5,22.6v43.7h-16.7V496c0-7.4-3.4-11.8-9.9-11.8c-7.4,0-11.4,4.5-11.4,14.1v37.4
			h-16.7V496c0-7.4-3.4-11.8-9.9-11.8c-7.4,0-11.4,4.5-11.4,14.1v37.4h-16.7V470.4z"/>
		<path class="st3" d="M469.3,470.4l14.7,45.2l14-45.2h17.3l-22.6,64.4c-5.1,14.3-11.8,22.7-26.2,22.7c-4.3,0-9-1.2-11.2-3.1v-13.8
			c2.5,1.3,6,1.9,8.6,1.9c6.5,0,9.7-2.7,10.9-7.4l-23.9-64.7H469.3z"/>
		<path class="st3" d="M570.6,535.7h-15.7l-0.1-10.9c-3,7.5-8.7,11.9-17.3,11.9c-12.8,0-20.9-9-20.9-19.5
			c0-17.9,15.8-20.2,28.9-21.4l8.6-0.8v-1.4c0-6.6-6.4-10.1-15.4-10.1c-6.9,0-13.5,1.8-19.9,5.3l4-15.3c6.4-3.2,13.2-4.3,19.6-4.3
			c15.2,0,28.2,7.1,28.2,24V535.7z M542.9,523.5c6,0,11.2-4.9,11.2-13V506l-9.2,0.9c-7.8,0.8-11.5,3.1-11.5,8.4
			C533.3,519.9,536.3,523.5,542.9,523.5z"/>
		<path class="st3" d="M583.7,442.5h16.7v93.2h-16.7V442.5z"/>
		<path class="st3" d="M614.6,442.5h17v17.4h-17V442.5z M614.7,470.4h16.7v65.3h-16.7V470.4z"/>
		<path class="st3" d="M679,484c-9.3,0-20.2,4.8-20.2,18.2c0,14.4,10.9,20.5,22.7,20.5c4.8,0,10.4-1.6,14.1-4v14.8
			c-3,1.8-9.3,3.8-16.6,3.8c-15.8,0-37.2-8.7-37.2-34.1c0-26.9,22.7-34,37.5-34c8,0,13.5,1.8,17,4.3l-3.9,14.4
			C688.9,485.6,684.2,484,679,484z"/>
		<path class="st3" d="M739.3,537.4c-25.7,0-38.5-14.5-38.5-34.5c0-18.3,11.9-34.1,33.1-34.1c18.4,0,29.2,15.1,29.2,32.6
			c0,2.3-0.1,5.6-0.5,7.7h-44.4c2.1,9.2,9.5,14.3,23,14.3c7.3,0,14.7-2.2,18.9-5.3v14.7C755.3,535.7,746.3,537.4,739.3,537.4z
			 M733.2,482.7c-8.4,0-13.9,5.6-15.3,14.5h28.8C745.6,488.5,740.7,482.7,733.2,482.7z"/>
	</g>
</g>
</svg>
